<svg xmlns="http://www.w3.org/2000/svg" viewBox="0 0 500 500"><g id="freepik--background-complete--inject-50"><path d="M452.92,222.17H339.74s11.22-30.65,28.49-30.65,22.68,21.16,22.68,21.16,11.65-11.5,21.23-11.5S430,216.37,430,216.37,443.56,208.2,452.92,222.17Z" style="fill:#ebebeb"></path><path d="M100,146.11H47.08S58.9,129,68.21,129s12.06,11.42,12.06,11.42,6.58-5.33,12.66-4.38S100,146.11,100,146.11Z" style="fill:#ebebeb"></path><path d="M361.52,62.87h-52.9s11.82-17.13,21.13-17.13,12.07,11.42,12.07,11.42,6.57-5.33,12.66-4.38S361.52,62.87,361.52,62.87Z" style="fill:#ebebeb"></path><path d="M196.17,113.16h-103s14.11-31.5,29.2-33.47,22.31,23.41,22.31,23.41,9.74-9,17.39-9,13.56,11.81,13.56,11.81S190.92,97.85,196.17,113.16Z" style="fill:#ebebeb"></path><path d="M180,287.91h-103s14.11-31.5,29.2-33.47,22.31,23.4,22.31,23.4,9.74-9,17.39-9,13.56,11.81,13.56,11.81S174.72,272.6,180,287.91Z" style="fill:#ebebeb"></path></g><g id="freepik--Floor--inject-50"><polygon points="48.82 358.78 99.11 358.54 149.41 358.45 250 358.28 350.59 358.45 400.89 358.54 451.18 358.78 400.89 359.03 350.59 359.11 250 359.28 149.41 359.11 99.11 359.02 48.82 358.78" style="fill:#263238"></polygon></g><g id="freepik--Plants--inject-50"><path d="M424.37,330.68c-3.37-4.35-7.2-9.14-7-14.92.22-5.32,2-11.23,6.9-14.07,1.4-.8,2.42-1.08,2.87.71.68,2.74-.49,6.07-1.07,8.73a55.37,55.37,0,0,0-1.42,10.4c-.07,2.47.1,4.93.09,7.4,0,.31,0,.62,0,.93,0,.11,0,.24,0,.35l.09.13a.31.31,0,0,1,0,.26.2.2,0,0,1-.05.09A.29.29,0,0,1,424.37,330.68Z" style="fill:#F14756"></path><path d="M424.82,330.69c-2.75-4-6-8.08-5.57-13.13a22.49,22.49,0,0,1,1.8-6.82c.42-1,1.64-3.93,2.92-4,2.32-.12-.78,9.19-.93,10.29a23.49,23.49,0,0,0,1.73,11.89c0,.31,0,.62,0,.93a26.26,26.26,0,0,1-2.18-8.3c-.35-4,1-7.29,1.72-11.12.16-.82.8-3.44-.62-3.23-.94.14-2.15,3-2.41,3.62a22.3,22.3,0,0,0-1.72,6.46c-.48,5.1,2.64,9.24,5.32,13.31A.2.2,0,0,1,424.82,330.69Z" style="fill:#fff"></path><path d="M423.42,335.1l-.6.26h0a.14.14,0,0,1-.15,0,.23.23,0,0,1-.07-.3.17.17,0,0,1,.1-.08l.09,0,.18-.06s0,0,0,0l0,0c2.38-2.92,5.23-5.43,7.59-8.39s4.3-5.8,6.76-8.44c1.55-1.67,9.75-9.48,11.5-4.65.77,2.14-.92,5.21-2,7a22.91,22.91,0,0,1-5.47,6.18C436.06,330.79,429.55,332.39,423.42,335.1Z" style="fill:#F14756"></path><path d="M435.67,328.23a26.89,26.89,0,0,0,5.71-5.09c.57-.68,3.29-4,2.39-5-.57-.7-2.11.21-2.63.49-2.21,1.21-3.8,3.35-5.49,5.16A103.07,103.07,0,0,1,424.56,334l-.85.45-.71.38-.24.13-.18.11a.24.24,0,0,0,.07.3l.55-.29-.4.31h0l.48-.22.12-.05c.22-.16.45-.33.66-.5A112,112,0,0,0,435.67,328.23Zm-10.16,5.25c2.31-1.82,4.51-3.77,6.64-5.81,1.71-1.64,3.34-3.36,4.93-5.11a23.8,23.8,0,0,1,2.85-2.83c.81-.64,4-2.73,3.2.22-.56,2.14-3.3,4.53-4.89,5.89a38.87,38.87,0,0,1-5.73,4C430.22,331.11,427.85,332.28,425.51,333.48Z" style="fill:#fff"></path><path d="M412.91,346.3h0a.59.59,0,0,1-.13-.15c-2.73-4.23-7-9.38-6.77-14.72.19-3.94,2.36-9.23,6.27-10.84,4.42-1.81,3.56,6.53,3.44,8.66a152.75,152.75,0,0,1-2.54,17l0,.1v0C413.09,346.44,413,346.38,412.91,346.3Z" style="fill:#F14756"></path><path d="M413.13,346.36c0-.34-.05-.68-.07-1-.24-3.89-.32-7.8-.19-11.7,0-1,.81-8.52-1.15-8.16-1.18.22-1.89,3-2.15,3.95a15.37,15.37,0,0,0-.54,5.09c.26,3.94,2.27,7.5,3.67,11.16.07.17.14.34.2.52v.11h0C413,346.38,413.09,346.44,413.13,346.36Zm-3.49-9.74a15.83,15.83,0,0,1-.15-5.23c.16-1.15.86-5.32,2.33-5.4.77-.05.69.44.84,1.32a10.1,10.1,0,0,1,.13,1.22c0,1,0,2-.08,3-.09,1.76-.14,3.52-.15,5.29,0,2.89.09,5.77.28,8.65C411.83,342.5,410.27,339.7,409.64,336.62Z" style="fill:#fff"></path><path d="M426.67,347.71a29.69,29.69,0,0,1-17.24,1.79l-.1,0a.24.24,0,0,1-.07-.27.22.22,0,0,1,.25-.15l.36.06c6-3.31,12.07-6.53,18.05-10,1.4-.81,10.48-5.79,11-2.25.3,2.19-3,4.75-4.48,6A29.53,29.53,0,0,1,426.67,347.71Z" style="fill:#F14756"></path><path d="M433,340.88c.36-.47.66-1.06,0-1.34-1.33-.55-5.54,1.88-6.74,2.49-5,2.54-10,4.57-15.18,6.64l-1.31.53h-.51a.23.23,0,0,0,.07.27l.14,0c.22,0,.46,0,.69,0h0a35,35,0,0,0,10.78-1.62,33.22,33.22,0,0,0,6.33-2.75C429.13,344,431.73,342.61,433,340.88Zm-22.59,8.31h-.33c.19-.06.37-.11.55-.18a99.14,99.14,0,0,0,12-4.83c2-1,3.86-2,5.86-2.93.84-.38,3.19-1.52,4-1.16s-.05.94-.48,1.34-.92.73-1.23,1A34.64,34.64,0,0,1,410.45,349.19Z" style="fill:#fff"></path><path d="M398,358.78l-.59-.81,2.12-1.6c2.83-2.18,5.64-4.38,8.41-6.64,1.59-1.29,3.14-2.58,4.64-3.92a1.07,1.07,0,0,1,.16-.14l.36-.34q.19-.16.39-.36a43.25,43.25,0,0,0,8.63-10.46c.76-1.33,1.45-2.69,2.11-4.07.07-.13.13-.26.19-.39a.54.54,0,0,0,.05-.11c.07-.14.13-.27.19-.42l.15-.31c2-4.27,3.58-8.71,5.3-13.06.49-1.24,1-2.49,1.49-3.73l.09-.22c0-.09.07-.19.11-.28,2.21-5.49,4.48-11,6.54-16.5.07-.21.38-.06.3.14-1.34,3.71-2.6,7.44-3.88,11.18-.16.5-.34,1-.51,1.49-.34,1-.67,2-1,2.94q-1,3-2.11,5.86a143,143,0,0,1-6.75,16.25c-.2.39-.41.77-.62,1.15s-.26.49-.41.71-.3.55-.47.82A46.12,46.12,0,0,1,412,348l-.88.72-.41.34a1.92,1.92,0,0,0-.22.18l-.29.22h0l-.22.17-.77.6c-2.81,2.2-5.66,4.36-8.5,6.51C399.77,357.38,398.86,358.08,398,358.78Z" style="fill:#F14756"></path><path d="M432.93,296.68c1.39-4.39,5.53-11.71,11.12-10.74a4.33,4.33,0,0,1,3.7,4.42c0,2.64-1.83,5.13-3.39,7.11-4.16,5.29-8.8,10.14-12.59,15.72,0,.06-.33.48-.41.61s-.24,0-.17-.14l.37-.55C431.58,307.7,431.27,301.89,432.93,296.68Z" style="fill:#F14756"></path><path d="M431.78,313.23s0-.08.05-.12a45.83,45.83,0,0,1,2.38-4.88,94.42,94.42,0,0,1,6.29-9.4c.87-1.17,5.24-6.74,1.62-7.13-1.52-.16-3.08,1.13-4.12,2.08a17,17,0,0,0-3.93,5.44c-1.92,4.06-2.35,8.55-2.42,13,0,.2,0,.41,0,.61l-.08.18a.43.43,0,0,0-.05.12.11.11,0,0,0,0,.08.16.16,0,0,0,.2.12A.14.14,0,0,0,431.78,313.23Zm0-1.31a36.38,36.38,0,0,1,1.78-10.82,19.54,19.54,0,0,1,2.71-5.05,15.29,15.29,0,0,1,1.7-1.9,10.72,10.72,0,0,1,1.49-1.2c1.16-.78,2.73-1.21,3.33-.62.75.72.47,1.35-.09,2.58a11.76,11.76,0,0,1-.65,1.21,33.26,33.26,0,0,1-1.94,2.8c-1.13,1.52-2.24,3-3.3,4.59-.72,1.05-1.42,2.13-2.07,3.23a46.92,46.92,0,0,0-3,5.87C431.73,312.38,431.75,312.15,431.76,311.92Z" style="fill:#fff"></path><path d="M55.44,323.66c2.71,2.51,5.26,5.19,7.77,7.89,1.43,1.54,2.83,3.09,4.27,4.62,1.57,1.69,3.06,3.58,5.27,4.41h0a1,1,0,0,1,.27.17l0,0a.28.28,0,0,1-.34.34l-.15-.06H72.5a9.22,9.22,0,0,1-2-.46,48,48,0,0,1-5.37-1.6,45.87,45.87,0,0,1-10.24-5.13,38.68,38.68,0,0,1-7.66-6.79c-1.79-2.08-4.48-5.15-5-7.95-.45-2.53,2.82-2,4.33-1.59C50,318.57,52.86,321.3,55.44,323.66Z" style="fill:#F14756"></path><path d="M47.2,321.81c-.78,1.09,2.17,4.39,3.41,5.86a37,37,0,0,0,6.65,6.16,47.92,47.92,0,0,0,14.61,7l.63.19h.06l.14.05a.28.28,0,0,0,.35-.34c-.42-.19-.82-.39-1.21-.61s-.72-.4-1.06-.61c-3.78-2.25-7.06-5.38-10.28-8.36C56.72,327.69,48.24,320.37,47.2,321.81Zm24.14,18.44c.52.29,1.06.56,1.59.81l-1.27-.42a53.29,53.29,0,0,1-12.93-6.15,37.89,37.89,0,0,1-6.22-5.16,35.34,35.34,0,0,1-2.82-3.3c-.36-.49-2.74-3.38-2.11-3.95.44-.39,3.17,1.39,3.23,1.42.54.35,1.08.73,1.6,1.12,1.09.79,2.13,1.65,3.15,2.52,2.22,1.9,4.33,3.92,6.48,5.89A50.3,50.3,0,0,0,71.34,340.25Z" style="fill:#fff"></path><path d="M75.92,312.43C78.39,317.21,79,322.7,79,328c0,2.85-.06,5.69-.09,8.52a38.25,38.25,0,0,0,.27,7.61c0,.1,0,.22.07.33a9.39,9.39,0,0,0,.67,2,.15.15,0,0,1,0,.13l.12.19c0,.05,0,.11-.07.07l-.18-.16v0a.14.14,0,0,1-.16-.09l0-.08-.17-.16c-4.15-3.83-6.47-10.3-8-15.5s-2.31-10.74-.94-16c.35-1.33.94-4.5,2.55-5S75.4,311.41,75.92,312.43Z" style="fill:#F14756"></path><path d="M73.73,315.52c-1.63.28-1.28,4.74-1.23,5.83a56.85,56.85,0,0,0,1.48,9.8,51.25,51.25,0,0,0,5.41,15h0l.06.18a1.36,1.36,0,0,0,.17.17.2.2,0,0,0,0,.08.15.15,0,0,0,.16.09l-.06-.25c-.18-.65-.33-1.32-.47-2,0-.12-.05-.23-.07-.33A108.65,108.65,0,0,1,77.77,330a53.55,53.55,0,0,0-1.48-9.75C76.07,319.47,75.1,315.3,73.73,315.52Zm1.46,2.37c2.23,5.15,2.16,11.27,2.53,16.77a57.58,57.58,0,0,0,1.55,11A54.32,54.32,0,0,1,74.54,332a73.12,73.12,0,0,1-1.47-8.14,29.2,29.2,0,0,1-.25-4.48,11.56,11.56,0,0,1,.34-2.67C73.72,315.12,74.81,317,75.19,317.89Z" style="fill:#fff"></path><path d="M88.79,353.74a.31.31,0,0,1,0,.29h.11a.09.09,0,0,1,.09.09.07.07,0,0,1-.07.09c-6.39,1-13.5,1.3-19.79-.41a25.42,25.42,0,0,1-7.49-3.37c-1.56-1.05-4.71-3.18-4.89-5.29-.35-4.24,10.89.16,12.58.83,3.08,1.22,6.06,2.69,9.11,4,3.35,1.4,6.8,2.54,10.24,3.7A.25.25,0,0,1,88.79,353.74Z" style="fill:#F14756"></path><path d="M88.78,353.74c-.34,0-.68-.06-1-.11a54.71,54.71,0,0,1-16.19-4.39,50.71,50.71,0,0,0-7.91-3c-.68-.16-3.18-1-2.78.65.21.83,4.33,3.21,5.45,3.74a34.55,34.55,0,0,0,8.07,2.53,56.82,56.82,0,0,0,14.15,1l.41,0a.08.08,0,0,0-.09-.08h-.1A.28.28,0,0,0,88.78,353.74Zm-12-.49a40.38,40.38,0,0,1-8.16-2,26.83,26.83,0,0,1-3.06-1.35,18.17,18.17,0,0,1-2.26-1.34c-1.73-1.26-2.08-1.72-1.93-2.05s.46-.32,1.86-.09a13.62,13.62,0,0,1,2.65.77c1.21.46,2.42,1,3.61,1.48,2.4,1,4.78,2.1,7.25,2.95a42,42,0,0,0,10.94,2.28A65.31,65.31,0,0,1,76.77,353.25Z" style="fill:#fff"></path><path d="M88.12,335.38a16,16,0,0,1,3.3,6c1.46,4.35,2,9,3.12,13.39.18.66.36,1.32.57,2,0,.07.46.79.41.75s-.23-.22-.58-.59h0c-1.73-1.81-6.88-7.4-8.85-11.18a32.81,32.81,0,0,1-3-7.41c-.28-1.22-.8-4,.42-4.94S87.29,334.5,88.12,335.38Z" style="fill:#F14756"></path><path d="M85.5,336.45c-1.71.71,1.83,8.24,2.27,9.23a46.4,46.4,0,0,0,6.31,10.2c.28.36.57.7.86,1.05l.57.59s-.37-.68-.41-.76-.06-.23-.1-.34c-.16-.54-.32-1.09-.45-1.63-1.13-3-2.2-6-3.39-8.92a42.8,42.8,0,0,0-3-6.17C87.9,339.25,86.25,336.14,85.5,336.45ZM86.9,338c3.83,5.49,5.22,12.1,7.75,18.2,0,.11.08.2.12.3l-.32-.4a53.56,53.56,0,0,1-5.34-8.38,49.89,49.89,0,0,1-2.41-5.56A24.85,24.85,0,0,1,85.63,339c-.1-.47-.33-1.77,0-1.93S86.65,337.65,86.9,338Z" style="fill:#fff"></path><path d="M54.94,292.21c6,10.06,3,23,8.3,33.34l0,.05c.16.31.33.63.51.94a.22.22,0,0,1-.16.32.17.17,0,0,1-.16-.09l-.12-.22c-4.78-4.44-8.65-10.47-11.5-16.3-2.47-5.08-4.1-10.77-3.25-16.44.2-1.4.52-4.19,2.21-4.71S54.2,291,54.94,292.21Z" style="fill:#F14756"></path><path d="M52.87,295.91c-.71.23-.8,1.27-.88,1.84a17.69,17.69,0,0,0-.09,4.3,29.37,29.37,0,0,0,2.19,8.53,61.3,61.3,0,0,0,7.12,13.3c.67.92,1.38,1.81,2.13,2.66l.28.32a.22.22,0,0,0,.16-.32c-.18-.3-.33-.6-.5-.91a.2.2,0,0,1,0-.08,36.06,36.06,0,0,1-3.05-6.28,85.23,85.23,0,0,1-2.69-10.54C57.2,307.34,55.29,295.11,52.87,295.91Zm1.59,2c1.23,2.63,1.62,5.63,2.25,8.44s1.24,5.69,1.91,8.52a41.66,41.66,0,0,0,2.17,6.59,32,32,0,0,0,2.73,5.1A44.24,44.24,0,0,1,60.2,322l0-.07A82.23,82.23,0,0,1,55.45,313a.54.54,0,0,0-.05-.11,37,37,0,0,1-2.87-8.42,21.71,21.71,0,0,1-.41-4.82c.09-1.84.35-3.31,1-3.33C53.52,296.28,54.1,297.19,54.46,298Z" style="fill:#fff"></path><path d="M55.69,312.85c1.65,2.9,3.37,5.79,5.1,8.66q1.22,2,2.45,4a.2.2,0,0,0,0,.08l.88,1.46c2.66,4.39,5.29,9,8.64,12.93a43.83,43.83,0,0,0,5.92,5.62l.67.52h0l.37.27.21.16c1.86,1.44,3.81,2.79,5.71,4.09,2.64,1.82,5.39,3.45,8.16,5.05a1.38,1.38,0,0,0,.24.14l.37.23.2.1a4.05,4.05,0,0,0,.35.21c.89.52,1.78,1,2.66,1.56l-.56.8a64.29,64.29,0,0,1-8.4-4.54l-.16-.11c-.27-.16-.53-.33-.79-.5l-1-.62-2.26-1.53a67,67,0,0,1-12.25-10.14L72,341l-.12-.14-.21-.23-.32-.39-.56-.7-.16-.21a104.26,104.26,0,0,1-7.48-12c-.42-.75-.83-1.48-1.24-2.23l-.69-1.24c-.33-.63-.67-1.27-1-1.89l0-.07c-1.59-3-3.11-6-4.72-8.95C55.38,312.84,55.61,312.71,55.69,312.85Z" style="fill:#F14756"></path></g><g id="freepik--Shadow--inject-50"><ellipse cx="250" cy="415.97" rx="190.79" ry="32.23" style="fill:#ebebeb"></ellipse></g><g id="freepik--Monster--inject-50"><path d="M175.84,137.55c-6.21,5.21-36.74,42.66-82.17,30.59,0,0,7.81,32.3,23.25,32.3S141.59,177,141.59,177s1.68,4.09,5.68,3.73c8.13-.72,22.54-24.22,28.57-37.45Z" style="fill:#F14756"></path><path d="M175.84,137.55c-6.21,5.21-36.74,42.66-82.17,30.59,0,0,7.81,32.3,23.25,32.3S141.59,177,141.59,177s1.68,4.09,5.68,3.73c8.13-.72,22.54-24.22,28.57-37.45Z" style="opacity:0.1"></path><path d="M175.84,137.55v3.77c-3.88,5.58-23.07,31.92-41.77,36.46-20.94,5.1-40.4-9.64-40.4-9.64C139.1,180.21,169.63,142.76,175.84,137.55Z" style="opacity:0.1"></path><path d="M324.16,137.55c6.21,5.21,36.74,42.66,82.17,30.59,0,0-7.81,32.3-23.25,32.3S358.41,177,358.41,177s-1.68,4.09-5.68,3.73c-8.13-.72-22.54-24.22-28.57-37.45Z" style="fill:#F14756"></path><path d="M324.16,137.55c6.21,5.21,36.74,42.66,82.17,30.59,0,0-7.81,32.3-23.25,32.3S358.41,177,358.41,177s-1.68,4.09-5.68,3.73c-8.13-.72-22.54-24.22-28.57-37.45Z" style="opacity:0.1"></path><path d="M324.16,137.55v3.77c3.88,5.58,23.07,31.92,41.77,36.46,20.94,5.1,40.4-9.64,40.4-9.64C360.9,180.21,330.37,142.76,324.16,137.55Z" style="opacity:0.1"></path><path d="M378.26,415.37c-5.68-.7-83.42-25.9-84.84-25.9s-21.53,1.77-43.43,1.77-42-1.77-43.42-1.77-79.15,25.2-84.83,25.9S65,346.51,67.43,344s21.3,1.42,23.42,1.07,38.34-21.29,38.7-23.08,6-46.14,12.07-80.93,18.92-87,34.07-103.53,52.54-26,74.3-26,59.17,9.46,74.32,26,28,68.74,34.07,103.53,11.71,79.16,12.07,80.93,36.56,22.73,38.69,23.08,20.94-3.55,23.43-1.07S383.94,416.09,378.26,415.37Z" style="fill:#F14756"></path><path d="M225.21,114.93c1.53-.73,8.59-8.36,18.16-11,3.31-.9-2.79,6-2.79,6s14.2-8.54,19.92-10.6c9.55-3.45,14.29-4.17,14.29-2.59,0,3.53-14.88,10.17-17.38,13,0,0,8.83-2.14,11.8-.28s-7.81,3.74-7.81,3.74Z" style="fill:#F14756"></path><path d="M223.18,199.19a45.41,45.41,0,0,1,.5,15.52,38,38,0,0,1-5.1,14.86,33.3,33.3,0,0,1-5,6.19,34,34,0,0,1-6.4,4.67,37.46,37.46,0,0,1-15,4.22,48.76,48.76,0,0,0,14.17-5.57,36.82,36.82,0,0,0,5.87-4.67,32.71,32.71,0,0,0,4.59-5.89,41.5,41.5,0,0,0,5.27-14.06A63.78,63.78,0,0,0,223.18,199.19Z" style="opacity:0.1"></path><path d="M192.74,173.75c-19.54,0-29.37,15-29.37,32.52,0,14.19,11.6,28.68,30.35,28.68s30.36-17,30.36-30.35S214,173.75,192.74,173.75Z" style="fill:#fff"></path><path d="M193,180.4c-15.3,0-23,11.74-23,25.45C170,217,179,228.3,193.72,228.3s23.76-13.33,23.76-23.76S209.56,180.4,193,180.4Z" style="fill:#263238"></path><path d="M200,180.64c-6.95,0-10.44,5.34-10.44,11.56a10.42,10.42,0,0,0,10.79,10.2c6.66,0,10.79-6.06,10.79-10.79A11,11,0,0,0,200,180.64Z" style="fill:#fff"></path><path d="M175.36,170.15c6.7,1.24,13.39,2.53,20.08,3.83s13.38,2.56,20.05,3.93l-.39,1.58-37-10.2.58-2.47c12.14,2.18,24.28,4.31,36.4,6.55l-.65,2.83L196,171.1l-18.45-5.17.62-2.86,19.74,3.17,19.73,3.22-.51,2.5-38.25-10.21.3-1.59c6.62.84,13.22,1.81,19.84,2.71s13.22,1.84,19.82,2.82q-10-.9-19.93-1.92c-6.64-.67-13.29-1.27-19.92-2l.29-1.59,38.48,9.3-.51,2.5-19.77-3-19.76-3,.62-2.85,18.46,5.11,18.45,5.18-.66,2.83c-12.12-2.24-24.22-4.61-36.33-6.91l.58-2.47,36.75,11.07-.4,1.59c-6.65-1.48-13.27-3.09-19.9-4.63S182,171.77,175.36,170.15Z" style="fill:#263238"></path><path d="M249,131.19c-19.54,0-29.37,15-29.37,32.51,0,14.19,11.6,28.68,30.35,28.68s30.36-17,30.36-30.35S270.24,131.19,249,131.19Z" style="fill:#fff"></path><path d="M249.23,137.83c-15.29,0-23,11.74-23,25.46,0,11.11,9.08,22.45,23.76,22.45s23.76-13.33,23.76-23.76S265.84,137.83,249.23,137.83Z" style="fill:#263238"></path><path d="M249.65,136.71c-6.94,0-10.44,5.33-10.44,11.56A10.43,10.43,0,0,0,250,158.46c6.67,0,10.79-6.05,10.79-10.79A11,11,0,0,0,249.65,136.71Z" style="fill:#fff"></path><path d="M229,135.91q10.22-.22,20.44-.33c6.81-.08,13.62-.22,20.43-.24l-.06,1.64-38.3-2.47.07-2.54c12.32-.33,24.65-.72,37-1l-.07,2.91-19.12-1.24-19.11-1.32,0-2.92,20-.91,20-.86v2.56L230.7,127l0-1.62c6.65-.52,13.32-.91,20-1.37s13.32-.89,20-1.28q-9.94,1.15-19.91,2.18c-6.64.69-13.27,1.46-19.91,2.09l0-1.62,39.57,1.29v2.55l-20,1.11-20,1,0-2.93,19.11,1.25L268.68,131l-.07,2.91c-12.32.26-24.65.41-37,.61l.07-2.54,38.23,3.38-.07,1.63c-6.81-.1-13.62-.32-20.43-.48S235.81,136.15,229,135.91Z" style="fill:#263238"></path><path d="M277,199.19A63.78,63.78,0,0,0,278,214.46a41.48,41.48,0,0,0,5.26,14.06,32.76,32.76,0,0,0,4.6,5.89,36.38,36.38,0,0,0,5.87,4.67,48.65,48.65,0,0,0,14.17,5.57,37.46,37.46,0,0,1-15-4.22,33.64,33.64,0,0,1-6.4-4.67,33.3,33.3,0,0,1-5-6.19,38,38,0,0,1-5.1-14.86A45.66,45.66,0,0,1,277,199.19Z" style="opacity:0.1"></path><path d="M307.44,173.75c19.54,0,29.36,15,29.36,32.52,0,14.19-11.59,28.68-30.35,28.68s-30.35-17-30.35-30.35S286.22,173.75,307.44,173.75Z" style="fill:#fff"></path><path d="M307.22,180.4c15.3,0,23,11.74,23,25.45,0,11.11-9.08,22.45-23.76,22.45S282.69,215,282.69,204.54,290.61,180.4,307.22,180.4Z" style="fill:#263238"></path><path d="M300.14,180.64c6.95,0,10.44,5.34,10.44,11.56a10.42,10.42,0,0,1-10.79,10.2c-6.67,0-10.79-6.06-10.79-10.79A11,11,0,0,1,300.14,180.64Z" style="fill:#fff"></path><path d="M324.64,170.15c-6.62,1.62-13.25,3.18-19.89,4.73s-13.25,3.15-19.9,4.63l-.4-1.59,36.75-11.07.58,2.47c-12.11,2.3-24.21,4.67-36.33,6.91l-.66-2.83,18.45-5.18,18.46-5.11.62,2.85-19.76,3-19.77,3-.51-2.5,38.48-9.3.29,1.59c-6.63.73-13.28,1.33-19.92,2s-13.28,1.32-19.93,1.92q9.9-1.47,19.82-2.82c6.62-.9,13.22-1.87,19.84-2.71l.3,1.59L282.91,172l-.51-2.5,19.73-3.22,19.74-3.17.62,2.86L304,171.1l-18.47,5.1-.65-2.83c12.12-2.24,24.26-4.37,36.4-6.55l.58,2.47-37,10.2-.39-1.58c6.67-1.37,13.37-2.62,20.05-3.93S317.94,171.39,324.64,170.15Z" style="fill:#263238"></path><path d="M281.52,247.92c-1.46,3-19-1.11-31.51-1.11-13.26,0-30.07,4.14-31.53,1.11S225,214.84,250,214.84,283,244.88,281.52,247.92Z" style="fill:#263238"></path><path d="M271.49,248.67c-6.39-.63-14.7-1.86-21.48-1.86-7.11,0-15.26,1.2-21.49,1.83,7.87-15.15,16.08-16.43,21.49-10.38C255.41,232.21,263.63,233.49,271.49,248.67Z" style="fill:#ff99ba"></path><path d="M235.48,247.86c-3.51.41-6.82.81-9.57,1l2.73-10.25,4-.71Z" style="fill:#fff"></path><path d="M276.17,249c-2.86-.09-6.61-.53-10.64-1l3.82-8.45,5.08.35Z" style="fill:#fff"></path><path d="M316.29,273.94a67.79,67.79,0,0,0-9-23.22A56.55,56.55,0,0,0,291,233.88a51.46,51.46,0,0,0-15.73-7.12,4.06,4.06,0,0,1-1.87,2.07,3.53,3.53,0,0,1-3.65-.85,5.24,5.24,0,0,1-2.48,2.59c-1.64.62-3-1.11-3-1.11s-1.71,4.24-4.91,4.38-4.84-5.26-4.84-5.26-1.22,2.67-3.17,2.67-4.91-3.74-4.91-3.74,0-.26,0-.67l-1.39.43a56.74,56.74,0,0,0-20.28,11.59,67.68,67.68,0,0,0-15.17,19.73A87.69,87.69,0,0,0,201.76,313a67.61,67.61,0,0,0,9,23.22A55.36,55.36,0,0,0,227,352.88a55.57,55.57,0,0,0,46,6.62A55.15,55.15,0,0,0,293.29,348a67.43,67.43,0,0,0,15.17-19.74,87.88,87.88,0,0,0,7.83-54.36Zm-29.75,23.47a62.89,62.89,0,0,1-4.37,16,42.11,42.11,0,0,1-7.53,11.93,27.27,27.27,0,0,1-9.92,7,22,22,0,0,1-11.5,1.32,22.32,22.32,0,0,1-10.88-4.54,27.41,27.41,0,0,1-7.53-9.53,42.22,42.22,0,0,1-3.87-13.57,62.74,62.74,0,0,1,.34-16.62,63.82,63.82,0,0,1,4.37-16.16,42.4,42.4,0,0,1,7.56-12,27.28,27.28,0,0,1,9.92-7A22.53,22.53,0,0,1,264.84,253a22.15,22.15,0,0,1,10.66,4.51A27.3,27.3,0,0,1,283,267a42.05,42.05,0,0,1,3.86,13.68A64.48,64.48,0,0,1,286.54,297.41Z" style="fill:#37474f"></path><path d="M311,272.77a67.9,67.9,0,0,0-9-23.22,56.7,56.7,0,0,0-16.31-16.84,51.73,51.73,0,0,0-15.73-7.13,4,4,0,0,1-1.87,2.08,3.54,3.54,0,0,1-3.65-.86,5.23,5.23,0,0,1-2.48,2.6c-1.64.61-3-1.12-3-1.12s-1.71,4.24-4.91,4.39-4.83-5.26-4.83-5.26-1.23,2.67-3.18,2.67-4.91-3.75-4.91-3.75,0-.26,0-.66c-.47.13-.93.28-1.39.43a56.59,56.59,0,0,0-20.27,11.58,67.72,67.72,0,0,0-15.18,19.74,87.69,87.69,0,0,0-7.81,54.36,67.69,67.69,0,0,0,9,23.22,55.28,55.28,0,0,0,16.22,16.71,55.55,55.55,0,0,0,46,6.62A55.29,55.29,0,0,0,288,346.87a67.39,67.39,0,0,0,15.17-19.74A87.7,87.7,0,0,0,311,272.77ZM281.2,296.23a63,63,0,0,1-4.37,16,42.11,42.11,0,0,1-7.53,11.93,27.27,27.27,0,0,1-9.92,7,22.14,22.14,0,0,1-11.5,1.32A22.47,22.47,0,0,1,237,328a27.32,27.32,0,0,1-7.54-9.53,42,42,0,0,1-3.86-13.58,68.25,68.25,0,0,1,4.71-32.77,42.16,42.16,0,0,1,7.55-12,27.43,27.43,0,0,1,9.92-7,22.54,22.54,0,0,1,11.71-1.28,22.1,22.1,0,0,1,10.66,4.5,27.45,27.45,0,0,1,7.54,9.54,42.05,42.05,0,0,1,3.85,13.68A64.4,64.4,0,0,1,281.2,296.23Z" style="fill:#455a64"></path><path d="M262,217.48l-2.55,14h-6.21l-1.77-13.13-.77,8.63-6.33.3-1.8-11.53a28.66,28.66,0,0,1,7.43-1A27.74,27.74,0,0,1,262,217.48Z" style="fill:#fff"></path><path d="M250,391.24l-.09.06-.1-.06Z"></path><path d="M249.8,391.24H250l-.09.06Z"></path><path d="M200.39,385.5s25.67,5.71,49.41,5.74c-21.8,0-41.8-1.77-43.23-1.77s-79.14,25.2-84.82,25.9c-2.38.3-12.64-11.61-23.63-25.79,4.48,3.09,22.29,15.32,24.41,15.32C125,404.9,200.39,385.5,200.39,385.5Z" style="opacity:0.1"></path><path d="M402.1,389.28c-11.07,14.31-21.46,26.4-23.85,26.09-5.68-.7-83.41-25.9-84.83-25.9s-21.54,1.77-43.43,1.77c23.75,0,49.42-5.74,49.42-5.74s75.45,19.4,77.86,19.4C379.46,404.9,398.52,391.76,402.1,389.28Z" style="opacity:0.1"></path><path d="M142.73,234.88s-30.58,36.56-29.16,64.77,26.63,47.75,60.17,47.93c0,0,14.41,1.95,20,0,0,0-6.85-11.36-7.56-13.14,0,0,15.09-4.08,23.61-16.5,0,0-12-5.51-17.53-11.72,0,0,7.41-11,9-12.42,0,0-15.26,1.06-20.59,2.13,0,0-23.6-1.42-32.83-18.46S142.73,234.88,142.73,234.88Z" style="fill:#F14756"></path><path d="M123.68,326.31a49.55,49.55,0,0,0,10.44,9.27,62.07,62.07,0,0,0,12.34,6.48c1.07.44,2.2.76,3.29,1.16l1.64.56,1.69.45,3.37.88,3.42.63,1.72.31c.57.08,1.15.12,1.73.19l3.46.36c2.31.17,4.64.15,7,.23h.12a79.89,79.89,0,0,0,9.9.78,38.51,38.51,0,0,0,9.75-.89L193,348l-3.92-6.5-1.92-3.29c-.63-1.13-1.25-2.16-1.83-3.47l-.4-.89,1-.32a50.62,50.62,0,0,0,6.64-2.72,55,55,0,0,0,6.24-3.58,41.42,41.42,0,0,0,5.59-4.46,34.64,34.64,0,0,0,4.57-5.41l.43,1.45c-1.66-.76-3.23-1.57-4.8-2.43s-3.11-1.77-4.62-2.74a42.1,42.1,0,0,1-8.4-6.83l-.47-.52.37-.59c1.38-2.18,2.79-4.33,4.26-6.46.74-1.06,1.48-2.11,2.28-3.15a18.09,18.09,0,0,1,2.74-3l.57,1.58c-3.43.2-6.87.46-10.29.77s-6.85.65-10.21,1.22l-.08,0h-.05a44.18,44.18,0,0,1-14.06-2.85,37.78,37.78,0,0,1-12.2-7.4,35.1,35.1,0,0,1-8.21-11.59,45.75,45.75,0,0,1-3.49-13.71,47.74,47.74,0,0,0,4,13.49,34.15,34.15,0,0,0,8.38,11.1,37.25,37.25,0,0,0,12,6.95,42.52,42.52,0,0,0,13.61,2.51h-.13c3.44-.65,6.88-1.07,10.33-1.43s6.89-.61,10.35-.84l2.68-.17-2.12,1.76a17.78,17.78,0,0,0-2.36,2.69c-.76,1-1.49,2.05-2.21,3.1-1.43,2.1-2.82,4.25-4.17,6.41l-.09-1.11a40.26,40.26,0,0,0,8,6.46q2.21,1.4,4.52,2.64c1.53.83,3.11,1.62,4.67,2.33l1.08.49-.65,1a34,34,0,0,1-4.87,5.75,44.42,44.42,0,0,1-5.88,4.64,56.78,56.78,0,0,1-6.49,3.66,53.06,53.06,0,0,1-6.93,2.79l.59-1.21c.44,1,1.1,2.16,1.7,3.24l1.88,3.27,3.87,6.5.61,1-1.14.27a39.27,39.27,0,0,1-10.21.87,81.59,81.59,0,0,1-10.11-1h.12c-2.36-.13-4.72-.15-7.07-.37l-3.52-.43c-.59-.08-1.17-.14-1.76-.23l-1.73-.35-3.47-.7-3.41-1-1.71-.48-1.66-.61c-1.1-.42-2.23-.78-3.3-1.26A63.21,63.21,0,0,1,133.82,336,47.34,47.34,0,0,1,123.68,326.31Z" style="fill:#263238"></path><path d="M122.53,266.05s-13.62,13.3-14.1,22.9c-.17,3.46,5.1-3.54,5.1-3.54s-3.88,11.85-3.19,15.49,3.25-5.37,3.25-5.37Z" style="fill:#F14756"></path><path d="M356.89,233s22.51,42,15.38,69.35S336.49,343.66,303.61,337c0,0-14.51-1-19.57-4.06,0,0,9-9.73,10.08-11.32,0,0-13.94-7.07-19.76-21,0,0,12.86-2.94,19.55-7.9,0,0-5-12.28-6.3-14,0,0,14.73,4.15,19.73,6.28,0,0,23.4,3.41,35.9-11.39S356.89,233,356.89,233Z" style="fill:#F14756"></path><path d="M363.15,320.22a45.55,45.55,0,0,1-12.21,10.67,57,57,0,0,1-15,6.42,63.76,63.76,0,0,1-16.21,2.06,80.85,80.85,0,0,1-16.28-1.63l.12,0a81.43,81.43,0,0,1-10.1-1.1,39.42,39.42,0,0,1-9.82-2.93l-1.06-.5.8-.88,5.12-5.58L291,324c.8-.93,1.68-1.93,2.31-2.82l.34,1.31a53.32,53.32,0,0,1-6.22-4.14,54.47,54.47,0,0,1-5.61-4.91,42.63,42.63,0,0,1-4.82-5.73,32.41,32.41,0,0,1-3.59-6.63L273,300l1.13-.25c1.68-.38,3.38-.84,5.05-1.33s3.33-1.06,5-1.67a41.06,41.06,0,0,0,9.2-4.68l-.32,1.06c-.87-2.39-1.8-4.78-2.77-7.13-.49-1.17-1-2.34-1.54-3.48-.27-.57-.54-1.13-.84-1.67a9.86,9.86,0,0,0-.92-1.45l-1.88-2.19,2.75.76c3.35.92,6.66,1.89,10,2.92s6.58,2.16,9.81,3.5l-.12,0a42.81,42.81,0,0,0,13.84.32,37,37,0,0,0,13.16-4.37A34.12,34.12,0,0,0,345,271.1a46.85,46.85,0,0,0,6.61-12.41,44.61,44.61,0,0,1-6.19,12.71,35,35,0,0,1-10.4,9.68,37.59,37.59,0,0,1-13.46,4.77,44,44,0,0,1-14.35-.08h0l-.08,0c-3.17-1.25-6.45-2.28-9.74-3.27s-6.61-2-9.92-2.85l.87-1.44a10.13,10.13,0,0,1,1.18,1.78c.32.58.61,1.17.9,1.75.56,1.18,1.08,2.36,1.59,3.55,1,2.38,1.94,4.77,2.85,7.19l.24.66-.56.41a42.82,42.82,0,0,1-9.61,5q-2.52,1-5.08,1.74c-1.72.52-3.43,1-5.2,1.4l.71-1.33A36.3,36.3,0,0,0,283.22,312a53.21,53.21,0,0,0,5.39,4.78,51.54,51.54,0,0,0,5.94,4l.91.51-.57.79c-.84,1.17-1.65,2.05-2.5,3L289.84,328l-5.16,5.56-.25-1.37a38.63,38.63,0,0,0,9.36,2.84,77.8,77.8,0,0,0,9.85,1.26h.12a80.33,80.33,0,0,0,16,1.86,64.14,64.14,0,0,0,16-1.75,56.35,56.35,0,0,0,15-5.95,52.91,52.91,0,0,0,6.67-4.58A38.73,38.73,0,0,0,363.15,320.22Z" style="fill:#263238"></path><path d="M373.61,287.91s3.08,11.1,1.19,17.37-2.53-2.94-2.53-2.94-.73,11.77-2.09,12.34-.53-4.88-.53-4.88Z" style="fill:#F14756"></path><g style="opacity:0.1"><path d="M97.13,349.69c.46,8,17.09,9,20.1.69S96.54,339.6,97.13,349.69Z"></path><path d="M350.92,392.27c-2,6.36,9.3,11.44,13.79,5.7S353.42,384.23,350.92,392.27Z"></path><path d="M274.1,377.85c-.76,2.73,2.47,4.13,3.95,1.5S275.05,374.39,274.1,377.85Z"></path><path d="M347.92,318.17c2.78,5.81,15.52,1.52,15.23-5.61S344.41,310.81,347.92,318.17Z"></path><path d="M128.3,349.11c2.28,2.46-3.72,5.95-5.43,3.49S126.47,347.13,128.3,349.11Z"></path><path d="M190.15,152.52c-2.53,2.17-5.12-2.4-2.64-4.1S192.19,150.78,190.15,152.52Z"></path><path d="M361.09,299.38c2.27,2.46-3.72,5.95-5.44,3.48S359.26,297.4,361.09,299.38Z"></path><path d="M120.54,335c6.42-1.13,5.93,9.48,0,8.89S114.77,336,120.54,335Z"></path><path d="M134.72,281.19c3-.54,2.81,4.48,0,4.21S132,281.67,134.72,281.19Z"></path><path d="M198.15,256.6c3-.54,2.8,4.48,0,4.21S195.42,257.08,198.15,256.6Z"></path><path d="M324.1,156.11c3-.53,2.81,4.49,0,4.21S321.37,156.6,324.1,156.11Z"></path><path d="M137.18,270.41c3.55-3.44,8.68,5.86,4.57,7.64S134,273.5,137.18,270.41Z"></path><path d="M347.4,224.06c4.91-.53,3.24,9.95-1.1,8.83S343,224.54,347.4,224.06Z"></path><path d="M291.1,380c3,3.94-6.85,7.91-8.13,3.61S288.42,376.49,291.1,380Z"></path><path d="M184.2,134.59c6.42-1.13,5.93,9.48,0,8.89S178.44,135.61,184.2,134.59Z"></path></g><polygon points="235.56 403.15 239.46 399.98 244.51 401.56 244.51 404.02 235.56 403.15" style="fill:#455a64"></polygon><polygon points="261.71 403.01 260.72 401.69 264.44 402.04 263.83 403.21 261.71 403.01" style="fill:#455a64"></polygon><path d="M254.62,406.33s2.17-2,2.6-2.31,5.5-.14,5.42,1.16-.36,4.33-.94,4.33h-4.62Z" style="fill:#455a64"></path><polygon points="250.29 399.11 252.87 397.92 255.47 397.65 254.93 399.84 254.36 400.41 251.36 400.19 250.29 399.11" style="fill:#455a64"></polygon><path d="M248,401.25h.78l.52.95h-2s-.52-.14-.19-.33S248,401.25,248,401.25Z" style="fill:#455a64"></path></g><g id="freepik--404-error--inject-50"><path d="M126.8,418.9V385.22h-66V358.33l75.72-97.19h20.56v97H177v27.12H157.08V418.9ZM91.09,358.1h39.1V307Z" style="fill:#37474f"></path><path d="M121.2,418.9V385.22h-66V358.33l75.72-97.19h20.56v97h19.89v27.12H151.48V418.9ZM85.49,358.1h39.1V307Z" style="fill:#455a64"></path><path d="M394.62,418.9V385.22h-66V358.33l75.71-97.19h20.57v97H444.8v27.12H424.91V418.9Zm-35.71-60.8H398V307Z" style="fill:#37474f"></path><path d="M389,418.9V385.22H323V358.33l75.71-97.19h20.57v97H439.2v27.12H419.31V418.9Zm-35.71-60.8h39.1V307Z" style="fill:#455a64"></path><path d="M204.7,80.78a9.66,9.66,0,0,1-4.24-.92,10.43,10.43,0,0,1-3.27-2.43A11.22,11.22,0,0,1,194.32,70a10.71,10.71,0,0,1,.8-4.08,11.26,11.26,0,0,1,2.19-3.45,10.44,10.44,0,0,1,3.31-2.39,9.84,9.84,0,0,1,4.17-.88,9.37,9.37,0,0,1,4.22.94,10.52,10.52,0,0,1,3.25,2.48,11.4,11.4,0,0,1,2.1,3.48,11,11,0,0,1,.75,4,10.75,10.75,0,0,1-.78,4.06,11,11,0,0,1-2.16,3.42,10.39,10.39,0,0,1-3.3,2.37A9.84,9.84,0,0,1,204.7,80.78ZM198.52,70a8.57,8.57,0,0,0,.42,2.67,7.14,7.14,0,0,0,1.22,2.28,6,6,0,0,0,2,1.59,6,6,0,0,0,5.28,0,6,6,0,0,0,2-1.63,7.31,7.31,0,0,0,1.2-2.3,8.49,8.49,0,0,0,.4-2.59,8.3,8.3,0,0,0-.43-2.67A7.36,7.36,0,0,0,209.28,65a5.89,5.89,0,0,0-1.95-1.58,6.13,6.13,0,0,0-5.27,0,5.92,5.92,0,0,0-1.95,1.62,7.26,7.26,0,0,0-1.18,2.28A8.56,8.56,0,0,0,198.52,70Z" style="fill:#263238"></path><path d="M225.16,80.93a8.63,8.63,0,0,1-3.45-.66,7.74,7.74,0,0,1-2.59-1.79,7.87,7.87,0,0,1-1.64-2.59,8.74,8.74,0,0,1,0-6.21,7.91,7.91,0,0,1,1.64-2.6,7.72,7.72,0,0,1,2.59-1.78,9.32,9.32,0,0,1,6.89,0,7.88,7.88,0,0,1,2.58,1.78,8.05,8.05,0,0,1,1.63,2.6,8.74,8.74,0,0,1,0,6.21,8,8,0,0,1-1.62,2.59,7.6,7.6,0,0,1-2.58,1.79A8.63,8.63,0,0,1,225.16,80.93Zm-4.11-8.13a5.45,5.45,0,0,0,.32,1.9,4.68,4.68,0,0,0,.87,1.49,3.76,3.76,0,0,0,1.3,1,3.92,3.92,0,0,0,3.24,0,4,4,0,0,0,1.31-1,4.62,4.62,0,0,0,.87-1.5,5.6,5.6,0,0,0,.31-1.92,5.51,5.51,0,0,0-.31-1.89,4.62,4.62,0,0,0-.87-1.5,4,4,0,0,0-1.31-1,3.83,3.83,0,0,0-1.62-.34,3.69,3.69,0,0,0-1.62.36,4,4,0,0,0-1.3,1,4.62,4.62,0,0,0-.87,1.5A5.51,5.51,0,0,0,221.05,72.8Z" style="fill:#263238"></path><path d="M243.34,80.93a8.63,8.63,0,0,1-3.45-.66,7.78,7.78,0,0,1-2.6-1.79,8,8,0,0,1-1.63-2.59,8.74,8.74,0,0,1,0-6.21,8.05,8.05,0,0,1,1.63-2.6,7.76,7.76,0,0,1,2.6-1.78,8.63,8.63,0,0,1,3.45-.66,8.5,8.5,0,0,1,3.43.66,7.67,7.67,0,0,1,2.58,1.78,7.91,7.91,0,0,1,1.64,2.6,8.74,8.74,0,0,1,0,6.21,8,8,0,0,1-1.62,2.59,7.6,7.6,0,0,1-2.58,1.79A8.63,8.63,0,0,1,243.34,80.93Zm-4.11-8.13a5.69,5.69,0,0,0,.31,1.9,4.68,4.68,0,0,0,.87,1.49,3.89,3.89,0,0,0,1.31,1,3.92,3.92,0,0,0,3.24,0,4,4,0,0,0,1.31-1,4.79,4.79,0,0,0,.86-1.5,5.37,5.37,0,0,0,.32-1.92,5.28,5.28,0,0,0-.32-1.89,4.79,4.79,0,0,0-.86-1.5,4,4,0,0,0-1.31-1,3.83,3.83,0,0,0-1.62-.34,3.69,3.69,0,0,0-1.62.36,4.09,4.09,0,0,0-1.31,1,4.62,4.62,0,0,0-.87,1.5A5.76,5.76,0,0,0,239.23,72.8Z" style="fill:#263238"></path><path d="M263.68,80.93a6.2,6.2,0,0,1-3.24-.83,5.86,5.86,0,0,1-2.16-2.23V87h-4V64.91h3.51v2.7A6.43,6.43,0,0,1,260,65.43a6.25,6.25,0,0,1,3.18-.79,6.73,6.73,0,0,1,2.94.64A7.26,7.26,0,0,1,268.46,67,8.31,8.31,0,0,1,270,69.6a9.14,9.14,0,0,1,.55,3.14A9.91,9.91,0,0,1,270,76a8.22,8.22,0,0,1-1.43,2.61,6.63,6.63,0,0,1-2.17,1.74A6.08,6.08,0,0,1,263.68,80.93Zm-1.35-3.42a3.66,3.66,0,0,0,1.67-.39,4.13,4.13,0,0,0,1.3-1.05,4.93,4.93,0,0,0,.84-1.53,5.48,5.48,0,0,0,.3-1.8,5.11,5.11,0,0,0-.33-1.85,4.57,4.57,0,0,0-.92-1.48,4.26,4.26,0,0,0-1.38-1,4.11,4.11,0,0,0-1.72-.36,3.76,3.76,0,0,0-1.17.19,4.14,4.14,0,0,0-1.11.56,5.22,5.22,0,0,0-.92.84,3.47,3.47,0,0,0-.61,1v3.69a5.33,5.33,0,0,0,1.65,2.23A3.78,3.78,0,0,0,262.33,77.51Z" style="fill:#263238"></path><path d="M279.22,80.93a12.16,12.16,0,0,1-3.87-.63,9.44,9.44,0,0,1-3.24-1.8l1.5-2.52a12.86,12.86,0,0,0,2.8,1.54,7.55,7.55,0,0,0,2.72.53A3.43,3.43,0,0,0,281,77.6a1.45,1.45,0,0,0,.69-1.29,1.29,1.29,0,0,0-.81-1.23,17.49,17.49,0,0,0-2.64-.9q-1.53-.42-2.61-.81a6.7,6.7,0,0,1-1.74-.89,3,3,0,0,1-1-1.14,3.62,3.62,0,0,1-.3-1.54,4.89,4.89,0,0,1,.46-2.16A4.74,4.74,0,0,1,274.42,66a6,6,0,0,1,2-1,8,8,0,0,1,2.45-.36,10.48,10.48,0,0,1,3.31.51A8.1,8.1,0,0,1,285,66.77l-1.62,2.43A9.44,9.44,0,0,0,281,67.88a6.33,6.33,0,0,0-2.23-.42,3.23,3.23,0,0,0-1.71.42,1.46,1.46,0,0,0-.69,1.35,1.31,1.31,0,0,0,.16.69,1.47,1.47,0,0,0,.53.48,5.08,5.08,0,0,0,.94.4c.39.13.88.27,1.46.41,1.08.28,2,.56,2.77.84a7.55,7.55,0,0,1,1.89,1,3.4,3.4,0,0,1,1.08,1.24,3.85,3.85,0,0,1,.35,1.7,4.37,4.37,0,0,1-1.71,3.64A7.37,7.37,0,0,1,279.22,80.93Z" style="fill:#263238"></path><path d="M288.1,80.63V76.31h3.3v4.32Z" style="fill:#263238"></path><path d="M294.85,80.63V76.31h3.3v4.32Z" style="fill:#263238"></path><path d="M301.6,80.63V76.31h3.3v4.32Z" style="fill:#263238"></path><path d="M216.73,438.32V442H201.94v-21.3h14.52v3.63H206.08v5.13h9v3.36h-9v5.55Z" style="fill:#263238"></path><path d="M220,442v-21.3h9.42a6.07,6.07,0,0,1,2.72.62,7.12,7.12,0,0,1,2.14,1.62,7.64,7.64,0,0,1,1.41,2.28,6.83,6.83,0,0,1,.51,2.56,7,7,0,0,1-1,3.77,5.87,5.87,0,0,1-2.8,2.44l4.86,8h-4.65l-4.35-7.14h-4.08V442Zm4.14-10.77h5.19a2.21,2.21,0,0,0,1.07-.27,2.69,2.69,0,0,0,.85-.73,3.69,3.69,0,0,0,.57-1.1,4.24,4.24,0,0,0,.21-1.35,3.85,3.85,0,0,0-.24-1.38,3.78,3.78,0,0,0-.64-1.09,2.92,2.92,0,0,0-.93-.72,2.44,2.44,0,0,0-1.07-.26h-5Z" style="fill:#263238"></path><path d="M239.92,442v-21.3h9.42a6.07,6.07,0,0,1,2.72.62,7.12,7.12,0,0,1,2.14,1.62,7.64,7.64,0,0,1,1.41,2.28,6.83,6.83,0,0,1,.51,2.56,7,7,0,0,1-1,3.77,5.87,5.87,0,0,1-2.8,2.44l4.86,8h-4.65l-4.35-7.14h-4.08V442Zm4.14-10.77h5.19a2.21,2.21,0,0,0,1.07-.27,2.69,2.69,0,0,0,.85-.73,3.69,3.69,0,0,0,.57-1.1,4.24,4.24,0,0,0,.21-1.35,3.85,3.85,0,0,0-.24-1.38,3.78,3.78,0,0,0-.64-1.09,2.92,2.92,0,0,0-.93-.72,2.44,2.44,0,0,0-1.07-.26h-5Z" style="fill:#263238"></path><path d="M269,442.1a9.7,9.7,0,0,1-4.25-.91,10.5,10.5,0,0,1-3.26-2.43,11.27,11.27,0,0,1-2.87-7.46,10.52,10.52,0,0,1,.8-4.08,11.23,11.23,0,0,1,2.18-3.45,10.46,10.46,0,0,1,3.32-2.38,9.84,9.84,0,0,1,4.17-.89,9.41,9.41,0,0,1,4.22.95,10.49,10.49,0,0,1,3.25,2.47,11.4,11.4,0,0,1,2.1,3.48,11,11,0,0,1,.75,4,10.8,10.8,0,0,1-.78,4.07,11,11,0,0,1-2.16,3.42,10.39,10.39,0,0,1-3.3,2.37A9.84,9.84,0,0,1,269,442.1Zm-6.18-10.8a8.57,8.57,0,0,0,.42,2.67,7.12,7.12,0,0,0,1.21,2.28,6.19,6.19,0,0,0,2,1.59,6,6,0,0,0,5.27,0,6.2,6.2,0,0,0,2-1.64,7.24,7.24,0,0,0,1.19-2.29,8.48,8.48,0,0,0,0-5.27,7.8,7.8,0,0,0-1.23-2.28,5.89,5.89,0,0,0-2-1.57,6,6,0,0,0-5.26,0,5.92,5.92,0,0,0-1.95,1.62,7.26,7.26,0,0,0-1.18,2.28A8.2,8.2,0,0,0,262.78,431.3Z" style="fill:#263238"></path><path d="M282.55,442v-21.3H292a6.1,6.1,0,0,1,2.72.62,7.12,7.12,0,0,1,2.14,1.62,7.64,7.64,0,0,1,1.41,2.28,6.83,6.83,0,0,1,.51,2.56,7,7,0,0,1-1,3.77,5.87,5.87,0,0,1-2.8,2.44l4.86,8h-4.65l-4.35-7.14h-4.08V442Zm4.14-10.77h5.19a2.21,2.21,0,0,0,1.07-.27,2.69,2.69,0,0,0,.85-.73,3.69,3.69,0,0,0,.57-1.1,4.24,4.24,0,0,0,.21-1.35,3.85,3.85,0,0,0-.24-1.38,3.78,3.78,0,0,0-.64-1.09,3,3,0,0,0-.94-.72,2.37,2.37,0,0,0-1.06-.26h-5Z" style="fill:#263238"></path></g><g id="freepik--speech-bubble--inject-50"><path d="M418.85,104.35a39.58,39.58,0,0,1-66.15,25l-19.81,2.91,9.91-17.13a39.22,39.22,0,0,1-2.72-19.06,39.6,39.6,0,1,1,78.77,8.24Z" style="fill:#fff"></path><path d="M418.85,104.35a39.94,39.94,0,0,1-8,20.07,44.07,44.07,0,0,1-3.59,4.13,45.46,45.46,0,0,1-4.18,3.54,38.67,38.67,0,0,1-9.55,5.31A39.5,39.5,0,0,1,382.88,140a38.85,38.85,0,0,1-5.5.1,34.76,34.76,0,0,1-5.48-.57,39.9,39.9,0,0,1-19.59-9.67l.47.14L333,133l-1.44.22.73-1.26,9.85-17.16,0,.67a40.06,40.06,0,0,1,2.43-35.29A40.48,40.48,0,0,1,356.93,67a40.28,40.28,0,0,1,34.8-4.69A40.46,40.46,0,0,1,407,71.65,39.81,39.81,0,0,1,418.85,104.35Zm0,0A39.17,39.17,0,0,0,374,61.49,39.07,39.07,0,0,0,357.59,68a40.9,40.9,0,0,0-11.84,12.93,39,39,0,0,0-5,16.75,39.57,39.57,0,0,0,2.79,17.25l.14.35-.19.33-10,17.09-.71-1.05,19.83-2.77.28,0,.19.18a39,39,0,0,0,19,9.77,34.69,34.69,0,0,0,5.37.65,37.71,37.71,0,0,0,5.42,0,38.85,38.85,0,0,0,10.58-2.33,37,37,0,0,0,9.55-5.14,44.92,44.92,0,0,0,4.18-3.49,43.52,43.52,0,0,0,3.6-4.09A39.8,39.8,0,0,0,418.85,104.35Z" style="fill:#263238"></path><path d="M354.13,94a11.75,11.75,0,0,0,2.1,3.32c-.13,2.72,1.76,5.23,3.63,7a29,29,0,0,0,7.49,5,55.13,55.13,0,0,0,14.33,4.23c-.27,3.9-1.71,7.76-3.15,11.39,0,.09.11.13.15,0,1.45-3.59,3-7.44,3.46-11.35q1.46.24,2.91.45c1.48.21,3,.37,4.55.45a49,49,0,0,0,8,.37,13.55,13.55,0,0,0,8.66-3,8,8,0,0,0,2.48-7.89,14.43,14.43,0,0,0-1.43-3.65,18.39,18.39,0,0,0-1.27-2.32A25.29,25.29,0,0,0,400,91.84c-.62-.46-1.25-.9-1.9-1.33-.08-.08-.16-.17-.25-.25A31.74,31.74,0,0,0,390,85a46,46,0,0,0-19.1-4.64,44.78,44.78,0,0,0-9.94.86c-2.86.59-5.66,1.76-7,4.55a9.32,9.32,0,0,0-.41,6.33A8.27,8.27,0,0,0,354.13,94Zm33.14,19.17c-1.68-.24-3.36-.54-5-.91,0-.2,0-.4,0-.61.37.06.75.11,1.12.15s.68.06,1,.07a45.71,45.71,0,0,0,9.42.58,41,41,0,0,0,8.34-1.22c-3.93,2.13-8.94,2.4-13.23,2.1C388.39,113.32,387.83,113.26,387.27,113.2Zm-10.2-28.71c.88.16,1.75.35,2.61.55A21.26,21.26,0,0,0,373,86.15a12.8,12.8,0,0,0-6,4.11,14.75,14.75,0,0,0-3.39,1.39c-.25,0-.49,0-.74.08a11.43,11.43,0,0,0-2.73.74c0-.12,0-.24,0-.35,0-2.75,2.19-4.61,4.49-5.67a24.3,24.3,0,0,1,8.27-1.93A32.24,32.24,0,0,1,377.07,84.49ZM360.93,96.94c.26.35.54.69.83,1a4.84,4.84,0,0,0-.77.8A5.77,5.77,0,0,1,360.93,96.94Zm20.78,14.65c0,.19,0,.38,0,.57a57.11,57.11,0,0,1-6.92-2c1.41.35,2.83.66,4.26.94C379.94,111.26,380.83,111.44,381.71,111.59Zm-.65-3.8a61.4,61.4,0,0,1-17.32-6.24c-.69-.38-1.39-.79-2.06-1.22a3,3,0,0,1,1-1.44,28.86,28.86,0,0,0,8.06,4.88,91.42,91.42,0,0,0,9.51,3.31.45.45,0,0,0,.5-.14.78.78,0,0,1,.05.14C380.92,107.31,381,107.55,381.06,107.79ZM364.47,99q-.41-.32-.81-.66a6.7,6.7,0,0,1,3.69-.1,29.09,29.09,0,0,1,8.24,2.75,11.34,11.34,0,0,1,4.81,5C374.87,104.34,369.15,102.55,364.47,99Zm16.91,10a9.26,9.26,0,0,1,.18,1h-.05l-1.31-.26-1.82-.52a51.61,51.61,0,0,1-9-3.72,63.71,63.71,0,0,0,9.93,3.07C380,108.76,380.7,108.89,381.38,109Zm.72.13c1.83.33,3.68.57,5.54.74a5.75,5.75,0,0,1-2.55.56,15.53,15.53,0,0,1-2.88-.28C382.18,109.83,382.15,109.49,382.1,109.15Zm-12.88-2.39-.45-.17a25.88,25.88,0,0,1-3.76-2l-1.1-.69c-.17-.18-.34-.35-.5-.53l-.29-.36A52.54,52.54,0,0,0,369.22,106.76Zm-7.94-11.12a6.2,6.2,0,0,1,2.32-2.77,15.1,15.1,0,0,1,2.69,0,3.52,3.52,0,0,0,1.22,1.61,35.8,35.8,0,0,0,3.84,2.64,41.84,41.84,0,0,0,15.92,5.57,9.16,9.16,0,0,1,1.85,3.65,3.55,3.55,0,0,1-.36,2.59,61,61,0,0,1-6.89-.94c-.09-.35-.18-.71-.3-1.06a11.8,11.8,0,0,0-5.29-6.64,29.1,29.1,0,0,0-8.58-3.14,7.7,7.7,0,0,0-4.95.21l-.1.06A12.05,12.05,0,0,1,361.28,95.64Zm38.77,5.1a3.68,3.68,0,0,1-1.61.75,21.17,21.17,0,0,0-5.84-6.16,30.3,30.3,0,0,0-15.84-6,28.78,28.78,0,0,0-7.75.44l.21-.18a11.88,11.88,0,0,1,3.1-1.94c4.32-1.9,9.44-1.73,14-.72l.34.12a45.1,45.1,0,0,1,13.15,7.25l.14.22C401,96.29,401.82,99.21,400.05,100.74Zm-32.23-9.68a25.84,25.84,0,0,1,6.89-.82,29.48,29.48,0,0,1,15,4.34,27.64,27.64,0,0,1,6.12,5.08,13.8,13.8,0,0,1,1.51,2l-1.35.11a39,39,0,0,1-4.46.1c-1.14,0-2.27-.13-3.39-.26l-.1-.12c-3.79-4.58-9.54-7-15.12-8.61a35.05,35.05,0,0,0-5.47-1.18A2.74,2.74,0,0,1,367.82,91.06Zm1.26,2.14a45.23,45.23,0,0,1,8.21,2.5,27.4,27.4,0,0,1,7.12,4.09,22,22,0,0,1,1.69,1.55,40.44,40.44,0,0,1-11.3-3.67,41.16,41.16,0,0,1-3.71-2.11q-1-.63-1.92-1.32A7.55,7.55,0,0,1,367.62,93C368.11,93,368.6,93.11,369.08,93.2Zm28.44,14c-1.5,1.68-4.19,1.86-6.29,1.81l-.91,0c.83-2-.06-4.28-1.27-6.11h0a34.2,34.2,0,0,0,8.81-.16A4,4,0,0,1,397.52,107.21ZM360.7,94.54a6.34,6.34,0,0,1-.3-.83,9.55,9.55,0,0,1,1.26-.47,6.42,6.42,0,0,0-.43.48A5.2,5.2,0,0,0,360.7,94.54Zm44.36,14.6a13,13,0,0,1-2.08.69,38.78,38.78,0,0,1-8.14,1.42,42.63,42.63,0,0,1-6.59-.07,4.28,4.28,0,0,0,1.41-1.14h.1c2.47.14,5.32.18,7.48-1.23a4.76,4.76,0,0,0,2.1-3,5.71,5.71,0,0,0-.42-3.36,4.15,4.15,0,0,0,2.69-1.94,5.35,5.35,0,0,0,.47-3.32A8.48,8.48,0,0,0,401.8,96a20.79,20.79,0,0,1,4.55,5.45,6.2,6.2,0,0,1,.74,4.25,7,7,0,0,1-1.87,3.28ZM359.6,98.85a25.39,25.39,0,0,1-2.08-2.07,4.13,4.13,0,0,1,1.93-2.58,9.51,9.51,0,0,0,.73,1.59,7,7,0,0,0-.11,3.43ZM355.09,93a6.18,6.18,0,0,1,.18-4.68,9,9,0,0,1,6-4.59c3-.8,6.25-.51,9.33-.2l.48.06a24.34,24.34,0,0,0-6.79,1.86c-2.42,1.09-4.7,3-5.13,5.72a6.24,6.24,0,0,0,0,1.78,5.77,5.77,0,0,0-2.56,2.7A11.88,11.88,0,0,1,355.09,93Zm35.5-6.45a42.78,42.78,0,0,0-7.94-2.44,39.06,39.06,0,0,0-4.75-.66q-2.58-.53-5.16-.87c-5.82-.76-13.28-1.62-17.47,3.49-.14.17-.25.35-.37.52a6.21,6.21,0,0,1,.86-1.53,7.2,7.2,0,0,1,3.52-2.24,33.28,33.28,0,0,1,9-1.32,45.17,45.17,0,0,1,17.92,3.06A42.51,42.51,0,0,1,390.59,86.55Zm8.88,27.16-.5.06a18.45,18.45,0,0,0,4.64-2,13,13,0,0,0,2.1-1.63,4.78,4.78,0,0,0,1.16-.77,1.71,1.71,0,0,0,.18-.2,6.71,6.71,0,0,1-.4.68C405,112.21,402.23,113.32,399.47,113.71Zm-41-12.9a8,8,0,0,1-.88-2,23.84,23.84,0,0,0,2.37,1.88l.16.13,0,0a4.09,4.09,0,0,0,1.5,3.17,19.48,19.48,0,0,0,3.9,2.72c.5.36,1,.71,1.55,1s1.29.74,2,1.09a33.27,33.27,0,0,1-4.58-2.4A18.5,18.5,0,0,1,358.49,100.81Z" style="fill:#263238"></path></g></svg>