<?xml version="1.0" standalone="no"?>
<!DOCTYPE svg PUBLIC "-//W3C//DTD SVG 20010904//EN"
 "http://www.w3.org/TR/2001/REC-SVG-20010904/DTD/svg10.dtd">
<svg version="1.0" xmlns="http://www.w3.org/2000/svg"
 width="256.000000pt" height="256.000000pt" viewBox="0 0 256.000000 256.000000"
 preserveAspectRatio="xMidYMid meet">
<metadata>
Created by potrace 1.16, written by Peter Selinger 2001-2019
</metadata>
<g transform="translate(0.000000,256.000000) scale(0.100000,-0.100000)"
fill="#000000" stroke="none">
<path d="M540 2420 c-13 -13 -20 -33 -20 -60 0 -53 27 -80 80 -80 27 0 47 7
60 20 13 13 20 33 20 60 0 53 -27 80 -80 80 -27 0 -47 -7 -60 -20z"/>
<path d="M1060 2300 c-13 -13 -20 -33 -20 -60 0 -53 27 -80 80 -80 27 0 47 7
60 20 13 13 20 33 20 60 0 53 -27 80 -80 80 -27 0 -47 -7 -60 -20z"/>
<path d="M1592 2299 c-118 -46 -192 -162 -192 -304 l0 -75 115 0 c144 0 204
19 275 90 63 64 90 134 90 235 l0 75 -117 -1 c-94 0 -129 -4 -171 -20z"/>
<path d="M275 2034 c-114 -36 -141 -105 -84 -218 40 -81 220 -350 303 -453 63
-79 68 -83 106 -83 47 0 49 5 21 100 -46 161 -137 321 -251 443 -62 66 -62 67
-46 92 l17 26 27 -23 c121 -100 258 -318 312 -495 12 -40 26 -71 30 -68 38 23
64 276 40 384 -30 133 -106 239 -203 282 -68 29 -200 36 -272 13z"/>
<path d="M818 1935 c-44 -30 -48 -41 -32 -80 46 -112 59 -290 28 -411 -9 -36
-14 -67 -11 -70 7 -7 75 99 102 160 28 63 55 162 55 200 0 27 8 30 48 20 28
-8 28 -27 1 -124 -27 -101 -79 -206 -140 -285 l-50 -65 96 0 95 0 0 78 c0 68
4 87 31 140 34 69 90 122 155 149 53 22 55 35 15 118 -55 116 -172 195 -291
195 -53 0 -72 -5 -102 -25z"/>
<path d="M1980 1901 c-81 -26 -142 -85 -160 -153 -10 -34 -8 -57 9 -132 30
-128 28 -161 -10 -198 -29 -29 -33 -30 -92 -25 -34 3 -69 8 -79 12 -14 6 -17
-3 -20 -59 l-3 -66 133 0 c97 0 134 3 136 13 2 6 13 57 25 112 12 55 35 149
53 208 l31 109 30 -6 c17 -3 32 -7 33 -9 2 -1 -12 -54 -31 -117 -18 -63 -42
-158 -52 -210 l-20 -95 200 -3 c110 -1 202 0 205 3 8 7 -27 43 -63 65 -18 11
-65 24 -106 30 -60 8 -78 15 -97 36 -26 29 -23 51 13 99 49 66 58 96 59 190 1
99 -14 139 -65 177 -29 22 -92 31 -129 19z"/>
<path d="M1215 1581 c-43 -19 -115 -92 -115 -115 0 -8 14 -17 30 -21 31 -7 34
-14 24 -53 -6 -22 -13 -23 -62 -4 -10 3 -12 -8 -10 -49 l3 -54 235 0 235 0 3
33 c4 35 1 36 -54 15 -10 -4 -24 26 -24 53 0 6 18 16 40 23 l40 12 -16 37
c-20 49 -70 100 -119 123 -58 27 -65 25 -65 -21 l0 -40 -40 0 -40 0 0 40 c0
46 -7 48 -65 21z"/>
<path d="M254 1421 c-70 -33 -94 -61 -94 -108 l0 -33 156 0 156 0 -32 43 c-18
23 -46 61 -63 85 -17 23 -38 42 -46 42 -9 0 -44 -13 -77 -29z"/>
<path d="M163 1123 c13 -156 79 -343 173 -484 103 -156 288 -312 460 -390 38
-17 112 -43 164 -57 90 -26 107 -27 320 -27 250 0 303 9 468 79 352 148 620
511 649 879 l6 77 -1123 0 -1123 0 6 -77z m300 -357 c37 -60 135 -164 199
-213 49 -39 158 -108 180 -115 12 -4 -11 -58 -25 -58 -17 0 -119 61 -177 105
-70 54 -186 175 -230 239 l-33 49 23 19 c12 10 25 18 29 18 3 0 18 -20 34 -44z"/>
</g>
</svg>
