<?xml version="1.0" standalone="no"?>
<!DOCTYPE svg PUBLIC "-//W3C//DTD SVG 20010904//EN"
 "http://www.w3.org/TR/2001/REC-SVG-20010904/DTD/svg10.dtd">
<svg version="1.0" xmlns="http://www.w3.org/2000/svg"
 width="512.000000pt" height="512.000000pt" viewBox="0 0 512.000000 512.000000"
 preserveAspectRatio="xMidYMid meet">
<metadata>
Created by potrace 1.16, written by Peter Selinger 2001-2019
</metadata>
<g transform="translate(0.000000,512.000000) scale(0.100000,-0.100000)"
fill="#000000" stroke="none">
<path d="M2305 5109 c-98 -13 -294 -62 -395 -99 -186 -68 -403 -192 -525 -301
-356 -316 -548 -620 -645 -1024 -39 -160 -50 -259 -50 -443 0 -424 129 -803
386 -1137 86 -112 499 -643 744 -955 101 -129 293 -376 427 -547 134 -172 252
-317 263 -323 21 -11 70 -13 95 -4 18 7 121 135 473 587 126 161 356 456 513
657 157 201 329 421 383 490 192 246 292 422 365 646 226 688 42 1438 -475
1934 -138 132 -183 169 -269 225 -236 154 -485 248 -761 290 -109 16 -411 19
-529 4z m104 -925 c14 -18 21 -41 21 -70 l0 -44 61 0 c75 0 113 -23 130 -81
11 -34 16 -39 41 -39 59 0 97 -35 98 -91 0 -39 -27 -75 -63 -84 -12 -3 -269
-4 -570 -3 l-549 3 -24 28 c-49 58 -16 133 64 144 38 5 44 9 49 34 3 16 21 43
40 59 l34 30 264 0 265 0 0 45 c0 35 6 52 25 70 34 35 86 34 114 -1z m810 -23
c17 -41 22 -82 31 -272 5 -123 14 -227 19 -232 17 -17 55 -3 63 23 4 14 10
136 14 273 5 179 9 247 18 247 16 0 70 -92 100 -171 61 -162 72 -374 27 -491
-26 -67 -97 -151 -152 -179 -28 -14 -39 -26 -39 -42 -1 -110 -51 -821 -60
-837 -21 -39 -90 -38 -111 2 -8 15 -58 712 -59 830 0 22 -8 32 -39 47 -54 28
-126 112 -153 179 -19 49 -22 75 -22 187 0 137 11 196 60 327 27 72 79 152 93
143 5 -2 12 -116 15 -252 4 -137 11 -258 16 -270 10 -23 53 -33 64 -14 3 4 10
108 16 230 8 190 13 229 31 272 12 27 27 49 34 49 7 0 22 -22 34 -49z m-598
-511 c11 -7 19 -21 19 -38 0 -24 -29 -222 -136 -912 -31 -207 -31 -206 -61
-230 -24 -19 -42 -20 -292 -20 -283 0 -295 2 -321 50 -10 19 -170 1060 -170
1109 0 18 7 34 18 40 24 14 916 15 943 1z"/>
</g>
</svg>
